<?xml version="1.0" encoding="utf-8"?><svg xmlns="http://www.w3.org/2000/svg" xmlns:xlink="http://www.w3.org/1999/xlink"><symbol viewBox="2 2.909 20 18.182" id="album"><path d="M2.128 6.545c-.071 0-.128.053-.128.117v14.311c0 .064.057.117.128.117h19.744c.071 0 .128-.053.128-.117V6.662c0-.065-.057-.117-.128-.117H2.128zm1.69-3.636v.909h16.363v-.909H3.818zm-.909 1.818v.909h18.182v-.909H2.909z"/></symbol><symbol viewBox="246 247.395 20 17.209" id="comments"><path d="M256.154 247.397c-5.522-.109-10.068 3.294-10.153 7.6-.029 1.498.484 2.907 1.399 4.113 1.573 2.021-.144 5.494-.144 5.494l5.068-2.183c1.092.345 2.279.546 3.522.57 5.522.108 10.068-3.294 10.153-7.6.085-4.306-4.323-7.885-9.845-7.994m-4.429 9.036a1.232 1.232 0 1 1 0-2.463 1.232 1.232 0 0 1 0 2.463m4.106 0a1.231 1.231 0 1 1-.002-2.462 1.231 1.231 0 0 1 .002 2.462m4.106 0a1.232 1.232 0 1 1 .001-2.463 1.232 1.232 0 0 1-.001 2.463"/></symbol><symbol viewBox="4.5 -0.5 20 20" id="edit"><path d="M22.894 5.813a13.577 13.577 0 0 0-4.726-4.686L19.794-.5s2.354 0 3.529 1.176C24.5 1.853 24.5 4.206 24.5 4.206l-1.606 1.607zM9.206 19.5H4.5v-4.706l.564-.565a9.854 9.854 0 0 1 4.706 4.706l-.564.565zm12.33-12.33L11.128 17.577a13.555 13.555 0 0 0-4.726-4.686L16.83 2.465a9.821 9.821 0 0 1 4.706 4.705z"/></symbol><symbol viewBox="61.999 64.539 15 13" id="envelope"><path d="M69.5 69.851l6.37-5.287a.997.997 0 0 0-.211-.025H63.341a.999.999 0 0 0-.212.025l6.371 5.287z"/><path d="M69.9 71.896c-.009.008-.019.012-.027.02-.009.006-.019.012-.028.02a.614.614 0 0 1-.155.079c-.005.003-.011.003-.016.006a.621.621 0 0 1-.175.028h-.001a.66.66 0 0 1-.175-.028c-.005-.003-.011-.003-.017-.006a.643.643 0 0 1-.182-.099c-.009-.008-.018-.012-.027-.02l-7.078-5.876c-.013.1-.021.201-.021.306v9.429c0 .985.601 1.785 1.341 1.785h12.318c.74 0 1.341-.8 1.341-1.785v-9.429a2.37 2.37 0 0 0-.021-.306L69.9 71.896z"/></symbol><symbol viewBox="0 0 20 16.858" id="like"><path d="M20 5.287A5.287 5.287 0 0 0 14.713 0 5.281 5.281 0 0 0 10 2.901 5.281 5.281 0 0 0 5.287 0 5.287 5.287 0 0 0 0 5.287c0 5.522 8.869 11.571 10 11.571s10-6.022 10-11.571z"/></symbol><symbol viewBox="0 0 39.985 40.001" id="loupe"><path fill-rule="evenodd" clip-rule="evenodd" d="M39.376 36.437l-8.815-8.858a2.05 2.05 0 0 0-.904-.524 16.67 16.67 0 0 0 3.59-10.35C33.247 7.479 25.805 0 16.623 0 7.442 0 0 7.479 0 16.705 0 25.931 7.442 33.41 16.623 33.41c3.979 0 7.627-1.408 10.489-3.75.096.318.259.62.509.871l8.816 8.859c.812.815 2.127.815 2.938 0s.813-2.138.001-2.953zm-22.877-6.435C9.043 30.002 3 23.958 3 16.501S9.043 3 16.499 3s13.499 6.044 13.499 13.501c-.001 7.457-6.044 13.501-13.499 13.501z"/><path d="M18.581 22.919a2.082 2.082 0 0 1-4.162 0V10.081a2.081 2.081 0 0 1 4.162 0v12.838z"/><path d="M22.92 14.419a2.082 2.082 0 0 1 0 4.163H10.082a2.082 2.082 0 0 1 0-4.164H22.92z"/></symbol><symbol viewBox="0 0 17 4.25" id="more"><circle cx="2.125" cy="2.125" r="2.125"/><circle cx="8.5" cy="2.125" r="2.125"/><circle cx="14.875" cy="2.125" r="2.125"/></symbol><symbol viewBox="61.706 59.023 15 16.102" id="name"><circle cx="69.206" cy="63.58" r="4.557"/><path d="M72.143 68.857a8.123 8.123 0 0 1-2.937.553 8.12 8.12 0 0 1-2.937-.553c-1.808 1.195-4.564 2.527-4.564 6.268h15c0-3.74-2.756-5.072-4.562-6.268z"/></symbol><symbol viewBox="0 0 14.895 15" id="off"><g fill-rule="evenodd" clip-rule="evenodd"><path d="M13.16 7.322a5.855 5.855 0 0 0-.399-1.833 5.55 5.55 0 0 0-1.688-2.331c-.399-.326-.509-.675-.36-1.071.196-.525.814-.754 1.264-.421.379.281.728.612 1.048.959a6.882 6.882 0 0 1 1.544 2.734 7.46 7.46 0 0 1 .295 2.846 7.382 7.382 0 0 1-1.625 4.028c-.704.876-1.562 1.583-2.602 2.032-.528.228-1.076.438-1.636.561-.725.159-1.467.223-2.219.132-.735-.088-1.445-.24-2.131-.518-1.431-.581-2.558-1.525-3.416-2.803a6.943 6.943 0 0 1-.972-2.146C.056 8.673-.07 7.832.043 6.978c.06-.449.098-.907.212-1.343.17-.647.43-1.266.772-1.845a7.865 7.865 0 0 1 1.72-2.013c.477-.402 1.084-.324 1.386.171.245.403.127.882-.313 1.226-.743.582-1.277 1.329-1.633 2.187-.426 1.026-.569 2.104-.346 3.202.381 1.873 1.419 3.26 3.138 4.116a5.294 5.294 0 0 0 2.668.574c1.684-.09 3.089-.762 4.188-2.063.369-.438.667-.917.883-1.438.292-.708.45-1.452.442-2.43z"/><path d="M6.288 4.058c0-.952-.003-1.904 0-2.855C6.291.516 6.807-.002 7.478 0c.617.002 1.129.523 1.141 1.173.008.424.001.849.001 1.273 0 1.485.001 2.971-.001 4.457 0 .501-.21.89-.665 1.115-.616.305-1.383-.008-1.588-.672a1.942 1.942 0 0 1-.073-.548c-.008-.913-.004-1.826-.005-2.74z"/></g></symbol><symbol viewBox="62 59.103 15 17" id="password"><path d="M76.039 66.476c.068-.361.107-.732.107-1.112 0-3.452-2.981-6.261-6.646-6.261s-6.646 2.809-6.646 6.261c0 .38.038.751.107 1.112-.577.337-.961.926-.961 1.6v6.129c0 1.048.929 1.897 2.075 1.897h10.85c1.146 0 2.074-.85 2.074-1.897H77v-6.129c0-.674-.383-1.263-.961-1.6zm-5.623 5.352v1.332c0 .463-.41.838-.916.838s-.916-.375-.916-.838v-1.333c-.587-.297-.986-.867-.986-1.524 0-.961.851-1.74 1.902-1.74s1.902.779 1.902 1.74c0 .657-.398 1.228-.986 1.525zm3.201-5.65h-8.234a3.844 3.844 0 0 1-.086-.814c0-2.22 1.885-4.027 4.204-4.027s4.204 1.806 4.204 4.027a3.91 3.91 0 0 1-.088.814z"/></symbol><symbol viewBox="0 0 14.994 14.988" id="search"><path fill-rule="evenodd" clip-rule="evenodd" d="M14.766 13.653l-3.306-3.319a.748.748 0 0 0-.345-.188 6.242 6.242 0 0 0 1.353-3.886C12.468 2.803 9.677 0 6.233 0 2.791 0 0 2.803 0 6.259c0 3.458 2.791 6.259 6.233 6.259a6.192 6.192 0 0 0 3.939-1.409c.036.12.091.235.186.33l3.306 3.32a.776.776 0 0 0 1.102 0 .785.785 0 0 0 0-1.106zm-8.579-2.411a5.06 5.06 0 0 1-5.062-5.059 5.06 5.06 0 0 1 5.062-5.059 5.061 5.061 0 0 1 5.063 5.059 5.062 5.062 0 0 1-5.063 5.059z"/></symbol><symbol viewBox="0 0 20 20" id="soc_email"><path d="M15 0H5a5 5 0 0 0-5 5v10a5 5 0 0 0 5 5h10a5 5 0 0 0 5-5V5a5 5 0 0 0-5-5zM4.604 7.213l3.676 2.813-3.676 3.678V7.213zm.361 6.848l3.72-3.723 1.503 1.149 1.504-1.15 3.722 3.724H4.965zm10.806-.359l-3.674-3.677 3.674-2.813v6.49zm0-7.127l-5.584 4.281-5.583-4.281v-.637h11.168v.637z"/></symbol><symbol viewBox="0 0 20 20" id="soc_fb"><path d="M15 0H5a5 5 0 0 0-5 5v10a5 5 0 0 0 5 5h10a5 5 0 0 0 5-5V5a5 5 0 0 0-5-5zm-1.893 6.146H11.98s-.804-.159-.804.963v.963h1.931v2.571h-1.926v5.782H8.61v-5.782H6.685V8.072h1.768V5.823s.158-2.248 2.407-2.248h2.248v2.571z"/></symbol><symbol viewBox="0 0 20 20" id="soc_google"><path d="M8.216 5.153c-2.128.395-.955 4.478 1.107 3.998 2.138-.495.769-4.346-1.107-3.998zm1.521 6.47c-.223-.157-.565-.096-.93-.065h.005c-1.243.101-2.486.454-2.497 1.738-.015 1.526 2.922 2.148 4.241 1.314.363-.233.804-.662.712-1.37-.085-.652-1.015-1.254-1.531-1.617z"/><path d="M15 0H5a5 5 0 0 0-5 5v10a5 5 0 0 0 5 5h10a5 5 0 0 0 5-5V5a5 5 0 0 0-5-5zm-2.897 13.746c-1.142 2.37-5.695 2.345-6.833.783-.298-.415-.444-.971-.237-1.557.516-1.472 2.577-1.805 4.023-1.865-.03-.086-.157-.207-.223-.313-.375-.605-.196-.821-.084-1.213-3.605.17-3.368-2.952-2.459-3.928.314-.338.576-.54 1.117-.753.466-.187.996-.288 1.542-.328.414-.03 3.447-.061 3.71-.005-.086.04-.269.172-.369.232-.521.323-.445.384-.874.379-.192-.005-.42-.015-.606.005.753.46 1.232 1.779.809 2.744-.455 1.037-2.042 1.436-1.446 2.255.358.496 2.916 1.516 1.93 3.564zm4.478-3.654h-1.738l-.006 1.643h-.576l-.02-1.648h-1.784l.005-.565h1.794v-1.66l.602.005c-.056.238-.03 1.37-.015 1.658h1.738v.567z"/></symbol><symbol viewBox="0 0 20 20" id="soc_twitter"><path d="M15 0H5a5 5 0 0 0-5 5v10a5 5 0 0 0 5 5h10a5 5 0 0 0 5-5V5a5 5 0 0 0-5-5zm1.366 6.375s-.144.575-.719 1.003c-.575.43-.719.577-.719.577s.719 2.726-2.008 5.161c-2.721 2.436-6.593 1.574-6.878 1.433-.286-.144-1.29-.72-1.29-.72s1.575-.285 2.294-.575c.718-.285 1.003-.575 1.003-.575s-1.146-.144-1.574-.429c-.429-.285-.719-1.146-.719-1.146h1.146s-.86-.429-1.289-1.005c-.426-.575-.426-1.43-.426-1.43l.718.142s-.861-.861-.718-2.008c.143-1.146.286-1.289.286-1.289S6.476 7.521 8.34 7.808c1.866.285 2.008.285 2.008.285-.605-4.021 4.482-2.986 4.159-2.009 0 0 1.146-.574 1.288-.86.143-.285-.285 1.289-.285 1.289l.861-.143-.005.005z"/></symbol><symbol viewBox="0 0 20 20" id="soc_vk"><path d="M10.048 8.936c.174-.01.347-.056.532-.143a.797.797 0 0 0 .413-.389c.078-.163.113-.357.113-.578h.01c0-.158-.041-.327-.123-.496s-.209-.292-.389-.369a1.544 1.544 0 0 0-.588-.117 44.585 44.585 0 0 0-1.012-.011H8.83v2.118h.317c.43 0 .726-.005.901-.015zm.95 1.841c-.152-.062-.363-.092-.628-.098-.266-.005-.625-.01-1.074-.01h-.461v2.501h.134c.653 0 1.104-.006 1.354-.015.251-.011.506-.067.768-.18.225-.097.394-.24.502-.435.106-.188.158-.404.158-.645 0-.312-.062-.548-.19-.727a1.133 1.133 0 0 0-.563-.391z"/><path d="M15 0H5a5 5 0 0 0-5 5v10a5 5 0 0 0 5 5h10a5 5 0 0 0 5-5V5a5 5 0 0 0-5-5zm-.947 13.247a2.682 2.682 0 0 1-.758.932 3.6 3.6 0 0 1-1.237.63c-.45.128-1.023.188-1.719.188H6.334V5.003h3.534c.736 0 1.294.025 1.668.087.379.056.736.173 1.068.353.357.194.624.45.804.772.179.322.266.696.266 1.115 0 .485-.123.92-.368 1.299-.24.379-.584.66-1.013.839v.057c.619.132 1.11.394 1.479.793.373.398.558.941.558 1.621h.005c-.001.495-.093.93-.282 1.308z"/></symbol><symbol viewBox="0 0 26.703 20.953" id="top"><path fill-rule="evenodd" clip-rule="evenodd" d="M26.703 2.533a2.532 2.532 0 0 1-2.533 2.532H2.532a2.533 2.533 0 0 1 0-5.065H24.17a2.533 2.533 0 0 1 2.533 2.533z"/><path fill-rule="evenodd" clip-rule="evenodd" d="M25.961 16.629L15.195 5.864c-.018-.019-.029-.04-.048-.059a2.524 2.524 0 0 0-1.796-.74 2.525 2.525 0 0 0-1.796.74c-.019.019-.03.04-.048.059L.742 16.629a2.533 2.533 0 0 0 3.582 3.582l9.027-9.028 9.027 9.028a2.532 2.532 0 1 0 3.583-3.582z"/></symbol></svg>